<?xml version="1.0" encoding="UTF-8"?>
<svg id="Layer_1" data-name="Layer 1" xmlns="http://www.w3.org/2000/svg" viewBox="0 0 234.04 110.71">
  <defs>
    <style>
      .cls-1 {
        fill: none;
        stroke: #1d1e4d;
        stroke-miterlimit: 10;
        stroke-width: .5px;
      }

      .cls-2, .cls-3 {
        fill: #1d1e4d;
      }

      .cls-3 {
        font-family: TimesNewRomanPS-ItalicMT, 'Times New Roman', Times, serif;
        font-size: 18px;
        font-style: italic;
      }
    </style>
  </defs>
  <g>
    <path class="cls-2" d="M.28,64.41v-24.75h24.57s0,24.81,0,24.81l-11.05,12.83-8.18-.03,7.04-12.84-12.37-.03ZM12.43,74.21l9.36-10.96v-20.13s-18.01,0-18.01,0v18.18s14.11,0,14.11,0l-7.31,12.92,1.85-.02Z"/>
    <path class="cls-2" d="M148.51,60.45c.56,1.37,2.1,2.17,3.44,2.22l3.16.11-.05,1.36h-21.9s-.01-1.37-.01-1.37l3.29-.13c1.46-.06,2.92-1.06,3.45-2.48.41-1.1.56-2.29.56-3.54V20.31c0-1.35-.18-2.68-.7-3.85-.6-1.35-2.17-2.16-3.58-2.19l-3.01-.08v-1.37s21.1.02,21.1.02c2.65,0,5.1.25,7.66.67,6.09.99,11.3,5.79,11.36,12.14.18,4.3-1.85,8.22-5.42,10.61-2.21,1.48-4.64,2.29-7.25,2.9l11.44,15.8,3.15,3.75c1.41,1.68,3.39,2.93,5.64,3.3,1.83.3,4.25-4.35,5.16-6.47l18.92-43.89,1.61-.02,17.76,43.11,2.15,4.3c.5,1.01,1.33,1.87,2.26,2.5,1.25.83,2.63,1.08,4.14,1.23l-.02,1.37h-20.32s-.06-1.36-.06-1.36c1.2-.1,2.31-.19,3.39-.6,1.4-.53,2.09-1.84,1.82-3.28l-1.13-3.67-3.39-8.23h-19.85s-3.7,8.59-3.7,8.59l-.98,3.04c-.33,1.41.29,2.76,1.68,3.35,1.31.55,2.76.65,4.2.8v1.36s-10.26.02-10.26.02h-13.75s-17.46-24.02-17.46-24.02h-5.23s.02,15.79.02,15.79c0,1.53.09,3.06.69,4.53ZM164.62,25.64c-.2-4.1-2.44-7.69-6.28-9.28-2.09-.8-4.35-1.17-6.57-.67l-3.98.89v21.13c2.56.09,4.95.06,7.34-.47,5.91-1.29,9.78-5.45,9.47-11.6ZM211.91,43.97l-8.46-20.66-8.86,20.67h17.32Z"/>
    <path class="cls-2" d="M117.79,62.77l-.03,1.37h-21.89s-.02-1.37-.02-1.37l3.2-.11c1.44-.05,2.96-.99,3.52-2.39.43-1.07.57-2.26.57-3.49V20.16c0-1.33-.19-2.66-.72-3.8-.62-1.33-2.25-2.07-3.64-2.11l-2.94-.07.02-1.36,20.54.02c2.41,0,4.63.3,6.94.8,4.36.94,8.09,3.63,10.15,7.59,1.21,2.32,1.43,4.81,1.25,7.39-.4,5.72-4.17,10.41-9.7,11.93-4.78,1.37-9.73.73-14.55-.3l.02,15.21c0,1.72.07,3.39.67,4.97.48,1.25,1.87,1.96,3.13,2.19l3.48.16ZM122.54,36.46c1.68-1.5,2.77-3.32,3.24-5.49,1.05-4.8-.29-10.69-4.55-13.42-3.5-2.06-6.89-1.81-10.74-.85v21.3s5.17.73,5.17.73c2.55.22,4.96-.52,6.88-2.27Z"/>
    <path class="cls-2" d="M82.41,39l-10.76-.06v17.25s.27,3.22.27,3.22c.17,2.16,3.05,3.37,5.43,3.36h1.62s-.02,1.37-.02,1.37h-21.9s-.05-1.36-.05-1.36c2.54.14,5.77-.14,6.65-2.36.48-1.21.65-2.54.65-3.9V20.52c0-1.03-.12-1.92-.24-2.91-.28-2.19-2.88-3.38-5.02-3.4l-2.04-.02.07-1.36h38s.59,11.33.59,11.33l-1.36.04c-1.16-4.2-2.78-7.49-7.39-8.25l-3.44-.26h-11.8s0,20.1,0,20.1h9.72c.89,0,1.76-.2,2.58-.4,2.84-.93,3.34-3.69,3.76-6.59h1.37s0,17.41,0,17.41l-1.35.03c-.08-1.22-.12-2.21-.39-3.33-.55-2.3-2.46-3.9-4.95-3.91Z"/>
    <path class="cls-2" d="M40.07,77.26l-8.24.02,7.02-12.8h-12.3s0-24.82,0-24.82h24.53s0,24.8,0,24.8l-11.01,12.8ZM38.61,74.2l9.34-10.94v-20.14s-17.97,0-17.97,0v18.18s14.07.02,14.07.02l-7.29,12.91,1.85-.03Z"/>
    <path class="cls-2" d="M51.08,12.85v24.78s-24.52,0-24.52,0V12.87S37.61,0,37.61,0h8.21s-7.04,12.84-7.04,12.84h12.3ZM47.61,15.98h-14.07s7.33-12.97,7.33-12.97h-1.82s-9.45,11.07-9.45,11.07v20.09s18.01,0,18.01,0V15.98Z"/>
    <path class="cls-2" d="M24.88,12.82v24.81s-24.45,0-24.45,0V12.73S11.37,0,11.37,0h8.22s-7.03,12.81-7.03,12.81h12.31ZM21.45,15.98H7.36S14.67,3.04,14.67,3.04h-1.81S3.44,14.06,3.44,14.06v20.1s18.01,0,18.01,0V15.98Z"/>
    <path class="cls-2" d="M134.17,77.26h-1.45s-.14-2.21-.14-2.21c-.04-.61-.38-1.25-1.11-1.26l-2.98-.03v3.5s-1.12-.03-1.12-.03v-8.12s4.53.04,4.53.04c1.16.01,2.01,1.04,1.91,2.1.09.85-.3,1.51-1.06,1.98.45.24.86.63.89,1.06l.1,1.94c.01.27.17.55.43,1.03ZM132.65,71.35c.05-.79-.5-1.27-1.17-1.27h-2.99s0,2.72,0,2.72l2.98-.03c.73,0,1.27-.64,1.18-1.41Z"/>
    <path class="cls-2" d="M181.49,74.88h-3.26s-.81,2.33-.81,2.33h-1.2s3.02-8.05,3.02-8.05l1.33-.05,2.93,8.1-1.23.04-.78-2.38ZM181.05,73.85l-1.17-3.5-1.28,3.53,2.45-.03Z"/>
    <path class="cls-2" d="M98.01,73.8l-2.83.04-.02,3.41h-1.11s0-8.15,0-8.15l4.02.03c1.43.01,2.26,1.37,2.05,2.68-.17,1.06-.89,1.98-2.12,1.99ZM97.59,72.83c.88,0,1.38-.58,1.4-1.35.02-.68-.38-1.38-1.23-1.39l-2.6-.03v2.77s2.42,0,2.42,0Z"/>
    <path class="cls-2" d="M82.23,76.62c-.52.58-1.14.86-1.96.8-.68-.05-1.41-.42-1.81-1.14-.65-1.17-.73-2.57-.2-3.79.33-.77,1.06-1.23,1.75-1.33.89-.13,1.56.13,2.13.91l.02-2.93,1.04.02v8.12s-.85-.03-.85-.03c-.14,0-.12-.45-.13-.62ZM82.04,75.41c.23-.83.15-1.8-.16-2.55-.27-.66-.94-.89-1.57-.8s-1.11.53-1.23,1.23c-.3,1.65.15,3.23,1.48,3.22.6,0,1.26-.33,1.48-1.1Z"/>
    <path class="cls-2" d="M110.63,71.15c1.83.27,2.54,2.6,1.73,4.7-.31.81-.98,1.38-1.7,1.52-.9.17-1.66-.07-2.22-.7-.01.27-.03.58-.14.58h-.85s-.01-8.11-.01-8.11l1.04-.02.02,2.79c.65-.64,1.28-.89,2.13-.76ZM111.3,75.75c.43-.91.43-1.99.08-2.88-.24-.62-.95-.88-1.55-.81-.53.06-1.04.49-1.21,1.1-.42,1.47-.16,3.07,1.04,3.32.65.13,1.32-.04,1.64-.73Z"/>
    <path class="cls-2" d="M85.11,77.22c-.75-.32-1.02-1.08-.92-1.84.09-.71.59-1.36,1.48-1.49l2.19-.34c.24-.04.34-.76.23-.97-.4-.76-2-.82-2.44-.08l-.36.59c-.1.17-.8.01-.81-.14.03-.76.53-1.47,1.25-1.66,1.7-.46,3.39.15,3.4,1.32l.02,3.84c.37.04.7.21.7.4,0,.28-.28.55-.52.55-.64.02-.97-.17-1.18-.82-.8.77-1.96,1.11-3.03.65ZM86.19,76.56c.64,0,1.4-.23,1.76-.84.18-.32.16-1.06.13-1.4l-1.95.35c-.54.1-.94.48-.9.98s.38.91.97.91Z"/>
    <path class="cls-2" d="M210.22,77.13c-.75-.41-.88-1.26-.72-1.98s.79-1.19,1.64-1.31l1.95-.27c.24-.03.4-.62.32-.82s-.37-.56-.6-.63c-.64-.22-1.5-.21-1.86.33l-.32.59c-.08.14-.53.11-.82.09-.15-.61.21-1.37.86-1.68,1.54-.72,3.74-.24,3.74,1.31v3.66s.6.14.6.14c.14.03.12.46.06.59s-.35.24-.54.25c-.56.03-.93-.23-1.15-.81-.77.79-2.06,1.16-3.17.56ZM211.87,76.55c.5-.1,1.08-.38,1.28-.69.26-.4.25-1.15.18-1.53l-1.85.33c-.64.11-1.1.49-.97,1.14.1.52.61.9,1.35.75Z"/>
    <path class="cls-2" d="M144.43,77.18c-.76-.38-.96-1.18-.82-1.89.12-.64.61-1.28,1.41-1.39l2.31-.34c.2-.23.29-.83.14-1.04-.2-.29-.67-.5-1.04-.53-.83-.07-1.45.18-1.57,1.09l-.99.03c.05-.72.28-1.29.82-1.59,1.64-.89,3.85-.18,3.86,1.07l.02,3.88.58.05c.13.01.12.48.07.62-.08.22-.61.28-.92.22-.26-.05-.55-.37-.77-.77-.74.73-1.99,1.12-3.07.58ZM145.98,76.55c.46-.08,1.03-.36,1.27-.66.3-.38.29-.93.26-1.54l-1.9.3c-.63.1-1.08.51-.96,1.12.1.53.58.91,1.33.78Z"/>
    <polygon class="cls-2" points="61.72 72.57 61.75 73.57 57.79 73.56 57.79 77.24 56.63 77.24 56.63 69.11 62.23 69.1 62.3 70.1 57.8 70.1 57.78 72.57 61.72 72.57"/>
    <path class="cls-2" d="M139.24,75.44l1.03-.05c-.27,1.38-1.29,2.02-2.53,2.04s-2.27-.59-2.61-1.79c-.33-1.13-.27-2.43.43-3.44.88-1.28,2.9-1.49,3.98-.36.71.75.8,1.82.83,2.77h-4.3c-.08.99.41,1.7,1.17,1.86.8.17,1.65-.05,2-1.03ZM139.31,73.78c-.09-1.22-.86-1.81-1.77-1.71-.83.09-1.5.82-1.48,1.74l3.25-.03Z"/>
    <path class="cls-2" d="M225.96,76.54c-1.08,1.24-3.11,1.17-4.08-.11s-.92-3.01-.05-4.27c.63-.91,1.75-1.19,2.79-.97.98.2,1.78,1.05,2.01,2.16s.14,2.27-.67,3.19ZM225.31,75.72c.49-.89.46-1.91.07-2.79-.26-.57-.82-.92-1.39-.93s-1.15.33-1.42.9c-.67,1.39-.22,3.43,1.14,3.6.63.08,1.27-.16,1.61-.78Z"/>
    <path class="cls-2" d="M199.97,76.47c-1.01,1.28-2.99,1.24-4.01.11-.8-.89-.93-2.11-.7-3.23s.98-1.9,1.9-2.13c1.04-.26,2.18-.03,2.84.86.92,1.25,1,3.09-.02,4.39ZM199.41,75.46c.31-.84.28-1.78-.09-2.55-.28-.57-.86-.9-1.42-.9s-1.13.35-1.39.92c-.4.88-.4,1.89.04,2.74.31.6.88.88,1.5.84.56-.04,1.11-.38,1.37-1.06Z"/>
    <path class="cls-2" d="M160.08,76.54c-1,1.2-2.97,1.17-3.94.04-1.09-1.28-1.11-3.26-.05-4.57.99-1.22,3.01-1.22,4.01,0s1.07,3.22-.01,4.53ZM159.3,75.92c.66-.95.64-2.16.14-3.11-.27-.51-.84-.81-1.36-.81s-1.08.31-1.35.81c-.51.96-.49,2.13.11,3.06.52.82,1.87.9,2.46.05Z"/>
    <path class="cls-2" d="M70.21,76.44c-.99,1.32-3.07,1.31-4.08.09s-1.06-3.18-.05-4.46,3.06-1.3,4.08-.02,1.05,3.07.05,4.39ZM69.55,75.61c.39-.84.37-1.76.06-2.56-.25-.65-.81-1.04-1.43-1.04s-1.23.34-1.49.97c-.37.88-.36,1.89.08,2.76.27.53.85.8,1.41.79.5,0,1.09-.32,1.36-.91Z"/>
    <path class="cls-2" d="M187.5,77.27c-.72.21-1.57.19-2.21,0-.87-.25-1.35-.89-1.35-1.93l.95.02c.12.35.31.85.55.96.63.28,1.35.27,1.96.01.22-.09.46-.59.44-.81s-.39-.54-.63-.6l-1.95-.49c-.41-.1-.92-.5-1.04-.83-.15-.42-.09-1.11.14-1.49.52-.88,1.59-1.06,2.55-.94,1.01.12,1.8.86,1.74,1.84l-.81.02c-.15,0-.23-.36-.31-.53-.48-.61-1.47-.6-2.09-.22-.16.1-.34.52-.3.7s.33.45.51.5l1.92.51c.31.08.92.38,1.08.66.6,1.02.05,2.28-1.12,2.63Z"/>
    <path class="cls-2" d="M194.38,76.02c-.38,1.35-2.31,1.73-3.78,1.13-.75-.3-1.05-1.03-1.08-1.8l.99-.05c.08.92.68,1.2,1.52,1.22.65.02,1.61-.32,1.34-1.16-.61-.84-2.36-.58-3.22-1.34s-.42-2.15.52-2.61c.74-.36,1.59-.39,2.36-.14s1.29,1.01,1.19,1.74l-.84-.04c-.15,0-.21-.42-.29-.56-.52-.5-1.4-.55-2.05-.19-.17.09-.37.53-.33.72.16.8,1.87.55,3.28,1.41.5.3.53,1.17.4,1.66Z"/>
    <path class="cls-2" d="M172.61,76.04c-.38,1.34-2.38,1.75-3.87,1.07-.71-.32-1.02-1.09-.95-1.76l.84-.02c.18,0,.22.51.32.67.57.66,1.66.71,2.39.23.16-.1.35-.5.34-.69s-.33-.52-.51-.57l-2-.54c-.44-.12-.92-.42-1.07-.72-.18-.36-.17-1.11,0-1.46.46-.95,1.45-1.18,2.44-1.13,1.1.06,1.96.78,1.95,1.87l-.78.02c-.18,0-.28-.4-.38-.58-.52-.51-1.28-.54-1.97-.25-.2.08-.46.55-.41.77.18.81,1.89.56,3.28,1.42.5.31.55,1.13.4,1.67Z"/>
    <path class="cls-2" d="M105.09,71.3h1.04s-.01,5.95-.01,5.95l-.83-.02c-.18,0-.13-.55-.11-.77-.53.66-1.17.99-2.05.96-.96-.04-1.81-.65-1.81-1.69v-4.44s1.03.03,1.03.03v4.13c0,.25.24.78.45.9.39.23,1.16.18,1.5-.05s.75-.82.76-1.3l.02-3.7Z"/>
    <path class="cls-2" d="M165.38,72.37c-.49-.42-1.11-.37-1.55-.16-.37.18-.86.77-.87,1.29l-.03,3.75-1.03.02v-5.97s.81.01.81.01c.17,0,.15.47.16.75.62-.7,1.33-1.05,2.26-.91s1.62.84,1.63,1.85l.03,4.24h-1.06s0-3.89,0-3.89c0-.24-.17-.82-.36-.98Z"/>
    <path class="cls-2" d="M230.52,72.05c-.97-.07-1.7.68-1.71,1.6l-.03,3.59h-1.04s0-5.92,0-5.92l.85-.02c.16,0,.13.53.12.73.61-.69,1.36-1.04,2.31-.89.86.14,1.58.8,1.58,1.76l.03,4.34h-1.04s-.02-4.1-.02-4.1c0-.54-.45-1.04-1.05-1.09Z"/>
    <path class="cls-2" d="M122.1,75.17l1.02-.03c-.09,1.42-1.13,2.35-2.53,2.29-1.15-.05-2.08-.72-2.4-1.85-.26-.91-.2-1.93.15-2.82.41-1.03,1.32-1.59,2.41-1.64,1.29-.06,2.3.73,2.38,2.19h-.97c-.18-.68-.54-1.13-1.1-1.23s-1.23.13-1.54.67c-.52.89-.51,2.04-.1,2.99.26.61.92.87,1.54.77.54-.09,1-.51,1.15-1.33Z"/>
    <path class="cls-2" d="M205.36,75.22l1.04-.09c-.06,1.35-1.08,2.34-2.48,2.3-1.06-.03-1.98-.57-2.35-1.6-.43-1.19-.37-2.62.4-3.69s2.31-1.31,3.42-.7c.66.36.91,1.03,1.04,1.84l-1,.05c-.12-.75-.54-1.18-1.18-1.26-.59-.08-1.26.21-1.54.83-.36.81-.36,1.82-.09,2.66.21.64.81.98,1.38.96.66-.02,1.21-.38,1.36-1.3Z"/>
    <path class="cls-2" d="M151.38,75.86c0,.13.04.47.16.48l.58.09c.16.03.28.38.26.58-.03.35-.96.46-1.65.1-.21-.11-.36-.64-.36-.91v-4.08c-.27.04-.82.11-.81-.05l.02-.68c0-.16.48-.11.77-.09l.03-1.68h.99s0,1.65,0,1.65l.97.02v.86s-.97,0-.97,0v3.7Z"/>
    <path class="cls-2" d="M217.25,76.1c0,.21.53.38.75.36.15-.01.27.37.24.56-.05.36-1,.45-1.63.11-.21-.11-.38-.66-.38-.92v-4.08c-.24.04-.8.12-.8-.04v-.72c0-.16.57-.08.79-.04l.02-1.69h1s0,1.64,0,1.64l.93.04.05.85h-.98s.01,3.94.01,3.94Z"/>
    <rect class="cls-2" x="113.55" y="69.1" width="1.04" height="8.16"/>
    <rect class="cls-2" x="141.47" y="69.1" width="1.04" height="8.15"/>
    <path class="cls-2" d="M73.1,77.22h-1.03s0-5.87,0-5.87l.95-.08.07.92c.45-.7.98-1.15,1.91-1.06v1.11c-1.01-.14-1.87.47-1.87,1.44l-.02,3.54Z"/>
    <rect class="cls-2" x="63.27" y="69.11" width="1.04" height="8.16"/>
    <rect class="cls-2" x="153.24" y="71.29" width="1.04" height="5.96"/>
    <rect class="cls-2" x="207.33" y="71.29" width="1.04" height="5.98"/>
    <rect class="cls-2" x="219.11" y="71.29" width="1.04" height="5.98"/>
    <rect class="cls-2" x="116.01" y="71.29" width="1.04" height="5.98"/>
    <rect class="cls-2" x="75.83" y="71.29" width="1.04" height="5.98"/>
    <path class="cls-2" d="M50.71,77.28l-.21-2.53-.9,2.44-.37-.06-.84-2.46-.14,2.53-.44-.03.22-3.01c0-.11.42-.3.48-.21s.19.31.23.42l.72,2.11.87-2.38c.04-.11.5-.13.59-.09l.21,2.97c.01.07-.16.19-.41.28Z"/>
    <path class="cls-2" d="M47.15,76.87c-.54.59-1.39.54-1.83.11.19-.44,1.31.3,1.52-.41.27-.93-1.63-.71-1.41-1.9.05-.27.41-.59.65-.67.3-.1.93-.05,1.1.26-.2.33-1.13-.19-1.29.4-.18.65.69.62,1.27,1.16.19.18.19.86,0,1.06Z"/>
    <rect class="cls-2" x="75.83" y="69.1" width="1.04" height="1.16"/>
    <rect class="cls-2" x="219.11" y="69.1" width="1.04" height="1.16"/>
    <rect class="cls-2" x="207.33" y="69.1" width="1.04" height="1.16"/>
    <rect class="cls-2" x="153.24" y="69.1" width="1.04" height="1.14"/>
    <rect class="cls-2" x="116.01" y="69.1" width="1.04" height="1.16"/>
  </g>
  <line class="cls-1" x1=".35" y1="85.98" x2="232.71" y2="85.98"/>
  <text class="cls-3" transform="translate(39.53 105.19)"><tspan x="0" y="0">Lake County Chapter</tspan></text>
</svg>